<svg xmlns="http://www.w3.org/2000/svg" width="20" height="20" fill="none" viewBox="0 0 14 13"><path fill="#000" fill-rule="evenodd" d="M3.472.758C2.11.991.737 2.278.737 4.702c0 .875.374 1.784.975 2.674.6.887 1.405 1.728 2.221 2.458.815.729 1.632 1.34 2.245 1.768a24 24 0 0 0 .822.55l.082-.053a24.342 24.342 0 0 0 2.985-2.265c.816-.73 1.622-1.57 2.22-2.458.602-.89.976-1.799.976-2.674 0-2.425-1.373-3.71-2.735-3.944a2.589 2.589 0 0 0-1.962.438c-.569.409-1.031 1.1-1.202 2.12h-.728c-.17-1.019-.633-1.711-1.202-2.12A2.588 2.588 0 0 0 3.472.758M7 12.578a50 50 0 0 1-.194.306l-.001-.001-.004-.003-.016-.01-.057-.035a17 17 0 0 1-.216-.136 24 24 0 0 1-.763-.513 25.056 25.056 0 0 1-2.314-1.822C2.594 9.61 1.741 8.726 1.097 7.77.455 6.821 0 5.773 0 4.702 0 1.987 1.574.353 3.344.05a3.34 3.34 0 0 1 2.528.567A3.52 3.52 0 0 1 7 2.005 3.52 3.52 0 0 1 8.128.617 3.34 3.34 0 0 1 10.656.05C12.426.353 14 1.987 14 4.702c0 1.07-.455 2.118-1.097 3.07-.644.954-1.497 1.839-2.338 2.592a25.082 25.082 0 0 1-2.314 1.822 24 24 0 0 1-.763.513 17 17 0 0 1-.274.172l-.015.01-.004.002h-.001A50 50 0 0 1 7 12.579m0 0l.193.306L7 13l-.193-.116z" clip-rule="evenodd"/></svg>